<svg xmlns="http://www.w3.org/2000/svg" version="1.1" xmlns:xlink="http://www.w3.org/1999/xlink" xmlns:svgjs="http://svgjs.dev/svgjs" width="1000" height="260" viewBox="0 0 1000 260"><g transform="matrix(1,0,0,1,-0.606059468023318,-0.08986710081762794)"><svg viewBox="0 0 396 103" data-background-color="#0074d9" preserveAspectRatio="xMidYMid meet" height="260" width="1000" xmlns="http://www.w3.org/2000/svg" xmlns:xlink="http://www.w3.org/1999/xlink"><g id="tight-bounds" transform="matrix(1,0,0,1,0.23999954933722734,0.03560254621226022)"><svg viewBox="0 0 395.5199999999999 102.92879625615612" height="102.92879625615612" width="395.5199999999999"><g><svg viewBox="0 0 584.0122816361982 151.98139448732078" height="102.92879625615612" width="395.5199999999999"><g transform="matrix(1,0,0,1,188.49228163619824,37.28904343991178)"><svg viewBox="0 0 395.52 77.40330760749723" height="77.40330760749723" width="395.52"><g id="textblocktransform"><svg viewBox="0 0 395.52 77.40330760749723" height="77.40330760749723" width="395.52" id="textblock"><g><svg viewBox="0 0 395.52 77.40330760749723" height="77.40330760749723" width="395.52"><g transform="matrix(1,0,0,1,0,0)"><svg width="395.52" viewBox="3.25 -35.5 181.38999938964844 35.5" height="77.40330760749723" data-palette-color="#ffffff"><path d="M7.95-23.2L7.95 0 3.25 0 3.25-23Q3.25-28.9 6.43-32.2 9.6-35.5 14.85-35.5L14.85-35.5Q20.45-35.5 23.53-32.3 26.6-29.1 26.6-24.15L26.6-24.15Q26.6-21.05 25.48-18.75 24.35-16.45 22.45-15.2 20.55-13.95 18.4-13.35 16.25-12.75 13.9-12.75L13.9-12.75 10.15-12.75 10.15-17.15 14.45-17.15Q17.8-17.15 19.73-19.18 21.65-21.2 21.65-24.25L21.65-24.25Q21.65-27.25 19.88-29.18 18.1-31.1 14.8-31.1L14.8-31.1Q11.6-31.1 9.78-28.93 7.95-26.75 7.95-23.2L7.95-23.2ZM48.55-35L53.25-35 53.25-32.5Q53.25-26.4 50.97-21.33 48.7-16.25 44.35-13.6L44.35-13.6 44.35 0 39.65 0 39.65-13.5Q35.3-16.1 32.95-21.08 30.6-26.05 30.6-32.05L30.6-32.05 30.6-35 35.4-35 35.4-32.5Q35.4-27.35 36.87-23.68 38.35-20 42-17.65L42-17.65Q48.55-22 48.55-32.5L48.55-32.5 48.55-35ZM67.5-35L76.65-35 76.65-30.6 67.8-30.6Q62.75-30.6 62.75-26.5L62.75-26.5Q62.75-24.3 64.97-22.78 67.2-21.25 71-19.85L71-19.85Q72.7-19.2 73.9-18.53 75.09-17.85 76.3-16.75 77.5-15.65 78.09-13.93 78.7-12.2 78.7-9.95L78.7-9.95Q78.7-7.45 77.65-5.48 76.59-3.5 74.95-2.38 73.3-1.25 71.57-0.68 69.84-0.1 68.2-0.05L68.2-0.05Q67.5 0 66.2 0L66.2 0 58.4 0 58.4-4.4 66.05-4.4Q69.45-4.4 71.59-5.83 73.75-7.25 73.75-10L73.75-10Q73.75-11.35 73.15-12.38 72.55-13.4 71.42-14.15 70.3-14.9 69.12-15.45 67.95-16 66.3-16.6L66.3-16.6Q65.84-16.75 65.59-16.85L65.59-16.85Q57.75-19.85 57.75-26.65L57.75-26.65Q57.75-30.85 60.45-32.93 63.15-35 67.5-35L67.5-35ZM88.89-15.9L88.89 0 84.19 0 84.19-35 88.89-35 88.89-20.3 104.09-20.3 104.09-35 108.79-35 108.79 0 104.09 0 104.09-15.9 88.89-15.9ZM135.44-4.4L135.44 0 115.54 0 115.54-26.65Q115.54-30.35 117.89-32.6L117.89-32.6Q119.49-34.1 121.49-34.55 123.49-35 126.39-35L126.39-35 135.44-35 135.44-30.6 125.74-30.6Q120.24-30.6 120.24-26L120.24-26 120.24-20.3 131.79-20.3 131.79-15.9 120.24-15.9 120.24-4.4 135.44-4.4ZM151.99-4.4L160.54-4.4 160.54 0 153.24 0Q151.19 0 150.01-0.08 148.84-0.15 147.09-0.68 145.34-1.2 144.14-2.25L144.14-2.25Q142.29-3.95 141.74-6.33 141.19-8.7 141.19-11.9L141.19-11.9 141.19-35 145.89-35 145.89-12Q145.89-9.1 146.54-7.45L146.54-7.45Q147.84-4.4 151.99-4.4L151.99-4.4ZM176.09-4.4L184.64-4.4 184.64 0 177.34 0Q175.29 0 174.11-0.08 172.94-0.15 171.19-0.68 169.44-1.2 168.24-2.25L168.24-2.25Q166.39-3.95 165.84-6.33 165.29-8.7 165.29-11.9L165.29-11.9 165.29-35 169.99-35 169.99-12Q169.99-9.1 170.64-7.45L170.64-7.45Q171.94-4.4 176.09-4.4L176.09-4.4Z" opacity="1" transform="matrix(1,0,0,1,0,0)" fill="#ffffff" class="wordmark-text-0" data-fill-palette-color="primary" id="text-0"></path></svg></g></svg></g></svg></g></svg></g><g><svg viewBox="0 0 170.21921838945073 151.98139448732078" height="151.98139448732078" width="170.21921838945073"><g><svg xmlns="http://www.w3.org/2000/svg" xmlns:xlink="http://www.w3.org/1999/xlink" version="1.1" x="0" y="0" viewBox="5 9.821001052856445 90.00099182128906 80.35800170898438" enable-background="new 0 0 100 100" xml:space="preserve" height="151.98139448732078" width="170.21921838945073" class="icon-icon-0" data-fill-palette-color="accent" id="icon-0"><g fill="#ffdc00" data-fill-palette-color="accent"><polygon points="53.214,58.036 59.643,58.036 59.643,51.607 53.214,51.607 46.786,51.607 40.357,51.607 40.357,58.036    46.786,58.036  " fill="#ffdc00" data-fill-palette-color="accent"></polygon><rect x="21.071" y="38.75" width="6.429" height="6.429" fill="#ffdc00" data-fill-palette-color="accent"></rect><rect x="27.5" y="45.179" width="6.429" height="6.429" fill="#ffdc00" data-fill-palette-color="accent"></rect><path d="M14.643 90.179h70.715c6.221 0 9.643-3.422 9.643-9.643V19.464c0-6.221-3.425-9.643-9.643-9.643H14.643C8.425 9.821 5 13.243 5 19.464v61.072C5 86.757 8.425 90.179 14.643 90.179zM53.214 19.464h32.144v6.429H53.214V19.464zM40.357 19.464h6.429v6.429h-6.429V19.464zM27.5 19.464h6.429v6.429H27.5V19.464zM14.643 19.464h6.429v6.429h-6.429V19.464zM14.643 35.536c0-1.599 1.617-3.215 3.215-3.215h64.285c1.598 0 3.215 1.616 3.215 3.215v41.785c0 1.598-1.617 3.215-3.215 3.215H17.857c-1.598 0-3.215-1.617-3.215-3.215V35.536z" fill="#ffdc00" data-fill-palette-color="accent"></path><rect x="21.071" y="51.607" width="6.429" height="6.429" fill="#ffdc00" data-fill-palette-color="accent"></rect></g></svg></g></svg></g></svg></g><defs></defs></svg><rect width="395.5199999999999" height="102.92879625615612" fill="none" stroke="none" visibility="hidden"></rect></g></svg></g></svg>